<?xml version="1.0" ?><svg fill="#fff" viewBox="0 0 512 512" xmlns="http://www.w3.org/2000/svg"><title/><g id="Smart_sensor"><path d="M231.45,197.45A8.57,8.57,0,1,0,240,206,8.57,8.57,0,0,0,231.45,197.45Zm0,13.13A4.57,4.57,0,1,1,236,206,4.56,4.56,0,0,1,231.45,210.58Z"/><path d="M374,429.47V390.13a39.93,39.93,0,0,0,51.52-28.45l.41-1.66-1.58-.66A40,40,0,0,0,374,376.71V350.45A39.93,39.93,0,0,0,425.51,322l.41-1.66-1.58-.66A39.93,39.93,0,0,0,374,337.07V309.72A29.75,29.75,0,0,0,410.83,291c.3-.88.57-1.8.8-2.71l.4-1.66-1.58-.66A29.72,29.72,0,0,0,372,300.89,29.72,29.72,0,0,0,333.53,286l-1.57.66.4,1.66c.19.79.42,1.58.68,2.36A29.7,29.7,0,0,0,370,309.72v27.35a39.93,39.93,0,0,0-50.35-17.39l-1.57.66.4,1.66A39.89,39.89,0,0,0,370,350.45v26.29a39.94,39.94,0,0,0-50.35-17.38l-1.57.66.4,1.66A39.89,39.89,0,0,0,370,390.13v39.34H285.4V276.26h15.22V187H211.38v34.69H201.21V164.09a6.57,6.57,0,0,0-13.14,0v62.19h23.31v50H226.6V429.47H146.21V390.13a39.93,39.93,0,0,0,51.52-28.45l.41-1.66-1.58-.66a40,40,0,0,0-50.35,17.38V350.45A39.93,39.93,0,0,0,197.73,322l.41-1.66-1.58-.66A40,40,0,0,0,146.21,337V309.72a29.75,29.75,0,0,0,37.64-21.41l.4-1.66-1.57-.66a29.74,29.74,0,0,0-38.47,14.88A29.73,29.73,0,0,0,105.75,286l-1.57.66.4,1.66a29.7,29.7,0,0,0,37.63,21.41v27.35a39.93,39.93,0,0,0-50.35-17.39l-1.57.66.4,1.66a39.89,39.89,0,0,0,51.52,28.45v26.27a40,40,0,0,0-50.35-17.36l-1.57.66.4,1.66a40,40,0,0,0,51.52,28.45v39.34H63.3V434H448.7v-4.57ZM197.21,221.57h-5.14V164.09a2.57,2.57,0,0,1,5.14,0Zm-32.9,142.84a35.85,35.85,0,0,1,29.08-2A35.94,35.94,0,0,1,146.61,386,36,36,0,0,1,164.31,364.41Zm-17.64-18.26a36,36,0,0,1,46.72-23.41,36,36,0,0,1-46.78,23.63Zm.08-40.86a25.72,25.72,0,0,1,32.74-16.23,25.73,25.73,0,0,1-32.86,16.59Zm-25.29-1.23a25.81,25.81,0,0,1-12.52-15,25.73,25.73,0,0,1,32.84,16.52.14.14,0,0,0,0,.07A25.69,25.69,0,0,1,121.46,304.06Zm-8.72,40.31A36,36,0,0,1,95,322.74a36,36,0,0,1,46.79,23.63A35.85,35.85,0,0,1,112.74,344.37Zm0,39.68A36,36,0,0,1,95,362.41a36,36,0,0,1,46.73,23.46l.06.17A36,36,0,0,1,112.74,384.05ZM215.38,272.26V191h81.24v81.23Zm46.38,32.65h6.94v72.94a12.7,12.7,0,0,1-25.4,0V276.26H256v22.89A5.77,5.77,0,0,0,261.76,304.91Zm0-4a1.76,1.76,0,0,1-1.77-1.76V276.26h11.13v22.89a1.76,1.76,0,0,1-1.76,1.76ZM281.4,428.79H230.6V276.26h8.7V377.85a16.7,16.7,0,0,0,33.4,0v-74a5.78,5.78,0,0,0,2.42-4.69V276.26h6.28Zm93.35-43.9a36,36,0,0,1,46.42-22.48A35.94,35.94,0,0,1,374.39,386C374.5,385.65,374.62,385.27,374.75,384.89Zm17.34-60.16a35.85,35.85,0,0,1,29.08-2,36,36,0,0,1-46.78,23.63A36,36,0,0,1,392.09,324.73Zm-5.16-34.08a25.66,25.66,0,0,1,20.33-1.59c-.06.22-.14.44-.21.65a25.73,25.73,0,0,1-32.64,15.94A25.85,25.85,0,0,1,386.93,290.65Zm-37.69,13.41a25.67,25.67,0,0,1-12.41-14.65c0-.12-.07-.24-.11-.35a25.74,25.74,0,0,1,32.86,16.59A25.68,25.68,0,0,1,349.24,304.06Zm-8.73,40.31a36,36,0,0,1-17.7-21.63,36,36,0,0,1,46.79,23.63A35.87,35.87,0,0,1,340.51,344.37Zm0,39.68a36,36,0,0,1-17.7-21.64A36,36,0,0,1,369.6,386,35.87,35.87,0,0,1,340.51,384.05Z"/><path d="M256,82a92.86,92.86,0,0,1,67.92,29.49l2.6-3.08a97,97,0,0,0-141,0l2.6,3.08A92.86,92.86,0,0,1,256,82Z"/><path d="M303.78,135.32l2.61-3.1a66.08,66.08,0,0,0-100.78,0l2.61,3.1a62.11,62.11,0,0,1,95.56,0Z"/><path d="M226.07,156.46l2.73,3.24a31.23,31.23,0,0,1,54.4,0l2.73-3.24a35.23,35.23,0,0,0-59.86,0Z"/></g></svg>